
<?xml version="1.0" encoding="utf-8"?>
<svg x="-214.579pt" y="-215.493pt" width="659.489pt" height="661.439pt" viewBox="-214.579 -215.493 659.489 661.439" xmlns="http://www.w3.org/2000/svg" xmlns:xlink="http://www.w3.org/1999/xlink">
  <g id="1">
    <title>Layer 1</title>
    <g id="2">
      <title>Group</title>
      <clipPath id="4">
        <use xlink:href="#3"/>
        <path id="3" d="M114.875,-213.775 C296.384,-213.775,443.525,-66.6342,443.525,114.875 C443.525,296.383,296.384,443.525,114.875,443.525 C-66.6338,443.525,-213.776,296.383,-213.776,114.875 C-213.776,-66.6342,-66.6338,-213.775,114.875,-213.775 z"/>
      </clipPath>
      <g id="5" style="clip-path:url(#4);">
        <title>ClipGroup</title>
        <defs>
          <title>Path Copy Copy</title>
          <g id="6">
            <defs>
              <path id="7" d="M114.876,-213.776 C296.385,-213.776,443.526,-66.6352,443.526,114.874 C443.526,296.382,296.385,443.524,114.876,443.524 C-66.6328,443.524,-213.775,296.382,-213.775,114.874 C-213.775,-66.6352,-66.6328,-213.776,114.876,-213.776 z"/>
            </defs>
            <use xlink:href="#7" style="fill:#083346;fill-opacity:1;fill-rule:evenodd;opacity:1;stroke:none;"/>
          </g>
        </defs>
        <use xlink:href="#6"/>
        <clipPath id="9">
          <use xlink:href="#8"/>
          <path id="8" d="M223.804,127.806 C326.673,101.03,431.771,162.715,458.547,265.584 C485.324,368.453,423.638,473.551,320.769,500.327 C217.9,527.103,112.802,465.418,86.0255,362.549 C59.2494,259.68,120.935,154.582,223.804,127.806 z"/>
        </clipPath>
        <g id="10" style="clip-path:url(#9);">
          <title>ClipGroup</title>
          <g id="11">
            <title>Earth</title>
            <defs>
              <title>Path Copy Copy Copy</title>
              <g id="12">
                <defs>
                  <path id="13" d="M223.804,127.806 C326.673,101.03,431.771,162.715,458.547,265.584 C485.323,368.453,423.638,473.551,320.769,500.327 C217.899,527.103,112.801,465.418,86.0249,362.549 C59.2488,259.68,120.935,154.582,223.804,127.806 z"/>
                </defs>
                <use xlink:href="#13" style="fill:#1275a1;fill-opacity:1;fill-rule:evenodd;opacity:1;stroke:none;"/>
              </g>
            </defs>
            <use xlink:href="#12"/>
            <defs>
              <title>Path</title>
              <g id="14">
                <defs>
                  <path id="15" d="M328.499,131.664 C312.199,127.118,335.054,182.537,302.889,176.234 C270.723,169.929,244.855,174.885,244.666,197.629 C244.476,220.373,260.476,236.724,248.392,246.382 C236.306,256.038,240.972,260.499,245.552,269.663 C250.133,278.827,247.779,279.318,235.799,298.595 C223.818,317.872,241.969,312.878,264.857,314.295 C287.745,315.712,307.17,336.553,311.935,364.064 C316.7,391.574,347.214,383.179,343.751,333.153 C340.288,283.13,356.982,234.487,380.683,260.569 C404.384,286.652,420.155,308.486,449.885,279.686 C500.646,230.514,419.538,157.053,328.499,131.664 z"/>
                </defs>
                <use xlink:href="#15" style="fill:#a0dd56;fill-opacity:1;fill-rule:evenodd;opacity:1;stroke:none;"/>
              </g>
            </defs>
            <use xlink:href="#14"/>
            <defs>
              <title>Path</title>
              <g id="16">
                <defs>
                  <path id="17" d="M185.801,168.794 C194.187,199.197,183.325,199.026,194.492,214.036 C205.661,229.047,211.038,241.014,195.322,247.112 C179.606,253.21,170.309,254.307,174.333,269.766 C178.356,285.224,179.464,294.041,167.362,289.159 C155.26,284.277,142.308,287.424,141.154,297.644 C140,307.866,153.107,311.705,156.602,318.217 C160.097,324.73,145.719,322.215,139.885,330.072 C134.051,337.929,137.382,349.806,154.836,345.263 C172.29,340.72,195.261,339.683,200.952,369.6 C206.644,399.517,216.743,420.242,231.096,429.05 C245.448,437.859,241.133,450.155,200.785,444.783 C160.436,439.41,118.691,394.069,123.432,378.649 C128.173,363.229,130.482,364.982,125.125,359.237 C119.767,353.49,139.554,352.568,129.688,342.131 C119.821,331.693,112.2,322.476,111.557,315.92 C110.915,309.366,106.663,307.01,96.9404,301.805 C87.2188,296.601,80.827,294.157,79.5216,274.493 C78.2161,254.829,90.3493,250.199,66.3663,235.54 C42.3833,220.88,177.416,138.393,185.801,168.794 z"/>
                </defs>
                <use xlink:href="#17" style="fill:#a0dd56;fill-opacity:1;fill-rule:evenodd;opacity:1;stroke:none;"/>
              </g>
            </defs>
            <use xlink:href="#16"/>
          </g>
        </g>
        <clipPath id="19">
          <use xlink:href="#18"/>
          <path id="18" d="M223.804,127.806 C326.673,101.03,431.771,162.715,458.547,265.584 C485.324,368.453,423.638,473.551,320.769,500.327 C217.9,527.103,112.802,465.418,86.0255,362.549 C59.2494,259.68,120.935,154.582,223.804,127.806 z"/>
        </clipPath>
        <g id="20" style="clip-path:url(#19);"/>
      </g>
      <clipPath id="22">
        <use xlink:href="#21"/>
        <path id="21" d="M114.875,-213.775 C296.384,-213.775,443.525,-66.6342,443.525,114.875 C443.525,296.383,296.384,443.525,114.875,443.525 C-66.6338,443.525,-213.776,296.383,-213.776,114.875 C-213.776,-66.6342,-66.6338,-213.775,114.875,-213.775 z"/>
      </clipPath>
      <g id="23" style="clip-path:url(#22);"/>
      <g id="24">
        <title>Stars</title>
        <defs>
          <title>Path Copy</title>
          <g id="25">
            <defs>
              <path id="26" d="M-14.3892,367.649 C-13.0244,367.649,-11.9178,368.755,-11.9178,370.12 C-11.9178,371.485,-13.0244,372.592,-14.3892,372.592 C-15.7541,372.592,-16.8601,371.485,-16.8601,370.12 C-16.8601,368.755,-15.7541,367.649,-14.3892,367.649 z"/>
            </defs>
            <use xlink:href="#26" style="fill:#eef5a2;fill-opacity:1;fill-rule:evenodd;opacity:1;stroke:none;"/>
          </g>
        </defs>
        <use xlink:href="#25"/>
        <defs>
          <title>Path Copy Copy Copy</title>
          <g id="27">
            <defs>
              <path id="28" d="M228.082,-168.9 C229.447,-168.9,230.553,-167.794,230.553,-166.429 C230.553,-165.064,229.447,-163.958,228.082,-163.958 C226.717,-163.958,225.611,-165.064,225.611,-166.429 C225.611,-167.794,226.717,-168.9,228.082,-168.9 z"/>
            </defs>
            <use xlink:href="#28" style="fill:#eef5a2;fill-opacity:1;fill-rule:evenodd;opacity:1;stroke:none;"/>
          </g>
        </defs>
        <use xlink:href="#27"/>
        <defs>
          <title>Path Copy Copy Copy Copy</title>
          <g id="29">
            <defs>
              <path id="30" d="M259.351,44.3596 C260.716,44.3596,261.823,45.4655,261.823,46.8304 C261.823,48.1952,260.716,49.3018,259.351,49.3018 C257.986,49.3018,256.88,48.1952,256.88,46.8304 C256.88,45.4655,257.986,44.3596,259.351,44.3596 z"/>
            </defs>
            <use xlink:href="#30" style="fill:#eef5a2;fill-opacity:1;fill-rule:evenodd;opacity:1;stroke:none;"/>
          </g>
        </defs>
        <use xlink:href="#29"/>
        <defs>
          <title>Path Copy Copy Copy</title>
          <g id="31">
            <defs>
              <path id="32" d="M391.422,107.716 C392.787,107.716,393.894,108.822,393.894,110.187 C393.894,111.552,392.787,112.659,391.422,112.659 C390.057,112.659,388.951,111.552,388.951,110.187 C388.951,108.822,390.057,107.716,391.422,107.716 z"/>
            </defs>
            <use xlink:href="#32" style="fill:#eef5a2;fill-opacity:1;fill-rule:evenodd;opacity:1;stroke:none;"/>
          </g>
        </defs>
        <use xlink:href="#31"/>
        <defs>
          <title>Path Copy Copy Copy</title>
          <g id="33">
            <defs>
              <path id="34" d="M308.657,-35.2764 C310.022,-35.2764,311.129,-34.1704,311.129,-32.8055 C311.129,-31.4407,310.022,-30.3341,308.657,-30.3341 C307.292,-30.3341,306.186,-31.4407,306.186,-32.8055 C306.186,-34.1704,307.292,-35.2764,308.657,-35.2764 z"/>
            </defs>
            <use xlink:href="#34" style="fill:#eef5a2;fill-opacity:1;fill-rule:evenodd;opacity:1;stroke:none;"/>
          </g>
        </defs>
        <use xlink:href="#33"/>
        <defs>
          <title>Path Copy Copy Copy</title>
          <g id="35">
            <defs>
              <path id="36" d="M142.371,131.4 C143.736,131.4,144.842,132.506,144.842,133.871 C144.842,135.236,143.736,136.342,142.371,136.342 C141.006,136.342,139.9,135.236,139.9,133.871 C139.9,132.506,141.006,131.4,142.371,131.4 z"/>
            </defs>
            <use xlink:href="#36" style="fill:#eef5a2;fill-opacity:1;fill-rule:evenodd;opacity:1;stroke:none;"/>
          </g>
        </defs>
        <use xlink:href="#35"/>
        <defs>
          <title>Path Copy Copy Copy Copy</title>
          <g id="37">
            <defs>
              <path id="38" d="M-59.8782,-108.61 C-58.5134,-108.61,-57.4068,-107.504,-57.4068,-106.139 C-57.4068,-104.774,-58.5134,-103.668,-59.8782,-103.668 C-61.2431,-103.668,-62.3491,-104.774,-62.3491,-106.139 C-62.3491,-107.504,-61.2431,-108.61,-59.8782,-108.61 z"/>
            </defs>
            <use xlink:href="#38" style="fill:#eef5a2;fill-opacity:1;fill-rule:evenodd;opacity:1;stroke:none;"/>
          </g>
        </defs>
        <use xlink:href="#37"/>
        <defs>
          <title>Path Copy Copy Copy</title>
          <g id="39">
            <defs>
              <path id="40" d="M63.8631,-130.634 C65.228,-130.634,66.3345,-129.528,66.3345,-128.164 C66.3345,-126.799,65.228,-125.692,63.8631,-125.692 C62.4983,-125.692,61.3923,-126.799,61.3923,-128.164 C61.3923,-129.528,62.4983,-130.634,63.8631,-130.634 z"/>
            </defs>
            <use xlink:href="#40" style="fill:#eef5a2;fill-opacity:1;fill-rule:evenodd;opacity:1;stroke:none;"/>
          </g>
        </defs>
        <use xlink:href="#39"/>
        <defs>
          <title>Path Copy Copy Copy</title>
          <g id="41">
            <defs>
              <path id="42" d="M-121.729,10.0417 C-120.364,10.0417,-119.257,11.1477,-119.257,12.5125 C-119.257,13.8774,-120.364,14.9839,-121.729,14.9839 C-123.094,14.9839,-124.2,13.8774,-124.2,12.5125 C-124.2,11.1477,-123.094,10.0417,-121.729,10.0417 z"/>
            </defs>
            <use xlink:href="#42" style="fill:#eef5a2;fill-opacity:1;fill-rule:evenodd;opacity:1;stroke:none;"/>
          </g>
        </defs>
        <use xlink:href="#41"/>
        <defs>
          <title>Path Copy Copy Copy</title>
          <g id="43">
            <defs>
              <path id="44" d="M-64.8213,278.423 C-63.4564,278.423,-62.3499,279.529,-62.3499,280.894 C-62.3499,282.259,-63.4564,283.365,-64.8213,283.365 C-66.1861,283.365,-67.2921,282.259,-67.2921,280.894 C-67.2921,279.529,-66.1861,278.423,-64.8213,278.423 z"/>
            </defs>
            <use xlink:href="#44" style="fill:#eef5a2;fill-opacity:1;fill-rule:evenodd;opacity:1;stroke:none;"/>
          </g>
        </defs>
        <use xlink:href="#43"/>
      </g>
    </g>
  </g>
</svg>
